<?xml version="1.0" encoding="utf-8"?>
<!-- Generator: Adobe Illustrator 27.5.0, SVG Export Plug-In . SVG Version: 6.00 Build 0)  -->
<svg version="1.1" id="Layer_1" xmlns="http://www.w3.org/2000/svg" xmlns:xlink="http://www.w3.org/1999/xlink" x="0px" y="0px"
	 viewBox="0 0 566.9 283.5" style="enable-background:new 0 0 566.9 283.5;" xml:space="preserve">
<style type="text/css">
	.st0{fill:#0000BE;}
	.st1{fill:#FFFFFF;}
	.st2{display:none;}
	.st3{display:inline;}
	.st4{fill:#231F20;}
</style>
<g id="Layer_1_00000126287098839399537560000017183583309730968221_">
	<g>
		<path class="st0" d="M288.9,124.6c0-2,1-3,3.1-3h18.2v4.8h-15.9v9.9h15.2v4.8h-15.2v10.6h15.8v4.8h-21.3L288.9,124.6L288.9,124.6z
			"/>
		<path class="st0" d="M314.9,156.6V133c0.4-0.3,1-0.6,1.6-0.9c0.6-0.3,1.4-0.6,2.2-0.9c0.8-0.3,1.7-0.5,2.7-0.7
			c1-0.2,2-0.3,3.2-0.3c2.9,0,5.2,0.5,6.8,1.5l-1.9,3.9c-0.9-0.4-1.6-0.7-2.3-0.8s-1.4-0.2-2.3-0.2c-1,0-1.9,0.1-2.6,0.3
			s-1.5,0.5-2.1,0.8v20.8L314.9,156.6L314.9,156.6z"/>
		<path class="st0" d="M334.5,156.6v-37h5.2v13.9c1-1.2,2.1-2,3.3-2.5c1.2-0.5,2.7-0.7,4.4-0.7c1.4,0,2.6,0.2,3.7,0.6
			c1.1,0.4,2.1,1,3,1.9c0.9,0.9,1.5,1.9,2,3.2c0.5,1.3,0.7,2.7,0.7,4.4v16.2h-5.2v-15.1c0-2.3-0.4-4-1.2-5.1
			c-0.8-1.1-2.2-1.7-4.2-1.7c-2.1,0-3.7,0.7-4.8,2c-1.1,1.3-1.7,3.1-1.7,5.4v14.6H334.5z"/>
		<path class="st0" d="M369.5,156.7c-0.8-1.7-1.7-3.7-2.7-6c-1-2.3-1.9-4.6-2.9-6.9c-1-2.4-1.9-4.7-2.7-6.9
			c-0.9-2.2-1.6-4.2-2.1-5.8h5.6c0.5,1.6,1.1,3.4,1.8,5.4c0.7,1.9,1.4,3.9,2,5.8c0.7,1.9,1.4,3.7,2,5.4s1.2,3.2,1.7,4.3
			c0.4-0.8,0.9-2,1.5-3.7c0.6-1.7,1.3-3.6,2.1-5.6c0.7-2,1.5-4.1,2.2-6.1c0.8-2.1,1.4-3.9,1.9-5.4h5.2c-0.3,1-0.7,2.2-1.2,3.6
			s-1.1,2.9-1.7,4.5c-0.6,1.6-1.3,3.3-2,5s-1.4,3.4-2,4.9c-0.7,1.6-1.3,3-1.9,4.4c-0.6,1.3-1.1,2.4-1.6,3.3L369.5,156.7L369.5,156.7
			z"/>
		<path class="st0" d="M399.4,157.4c-1.7,0-3.4-0.3-4.9-0.8c-1.5-0.5-2.9-1.4-4-2.4s-2-2.4-2.7-4.1c-0.6-1.6-1-3.6-1-5.8
			c0-2.1,0.3-4.1,0.9-5.8c0.6-1.7,1.5-3.2,2.6-4.4c1.1-1.2,2.4-2.2,3.9-2.8c1.5-0.6,3.1-1,4.9-1c1.6,0,3.1,0.2,4.4,0.7
			c1.3,0.5,2.4,1.1,3.3,2c0.9,0.9,1.6,1.9,2.1,3.1s0.7,2.5,0.7,3.9c0,2-0.5,3.5-1.5,4.6c-1,1.1-2.7,1.7-5.1,1.7h-10.8
			c0.3,2.2,1.1,3.9,2.4,5.1c1.3,1.1,3.1,1.7,5.3,1.7c2.5,0,4.7-0.5,6.6-1.6l1.8,3.7c-1.1,0.7-2.4,1.2-3.9,1.6
			C403.1,157.2,401.4,157.4,399.4,157.4 M392.1,142.6h9.3c1.2,0,2-0.2,2.5-0.7s0.7-1.3,0.7-2.4c0-0.6-0.1-1.3-0.3-1.9
			c-0.2-0.6-0.6-1.2-1-1.7s-1-0.9-1.7-1.2s-1.5-0.5-2.5-0.5c-1.1,0-2.1,0.2-3,0.7s-1.6,1.1-2.2,1.9c-0.6,0.8-1,1.7-1.4,2.7
			C392.3,140.5,392.1,141.5,392.1,142.6"/>
		<path class="st0" d="M414.4,156.6V133c0.4-0.3,1-0.6,1.6-0.9c0.6-0.3,1.4-0.6,2.2-0.9c0.8-0.3,1.7-0.5,2.7-0.7
			c1-0.2,2-0.3,3.2-0.3c2.9,0,5.2,0.5,6.8,1.5l-1.9,3.9c-0.9-0.4-1.6-0.7-2.3-0.8s-1.4-0.2-2.3-0.2c-1,0-1.9,0.1-2.6,0.3
			s-1.5,0.5-2.1,0.8v20.8L414.4,156.6L414.4,156.6z"/>
		<path class="st0" d="M442.8,156.7c-0.8-1.7-1.7-3.7-2.7-6s-1.9-4.6-2.9-6.9c-1-2.4-1.9-4.7-2.7-6.9c-0.9-2.2-1.6-4.2-2.1-5.8h5.6
			c0.5,1.6,1.1,3.4,1.8,5.4c0.7,1.9,1.4,3.9,2,5.8c0.7,1.9,1.4,3.7,2,5.4s1.2,3.2,1.7,4.3c0.4-0.8,0.9-2,1.5-3.7
			c0.6-1.7,1.3-3.6,2.1-5.6c0.7-2,1.5-4.1,2.2-6.1c0.8-2.1,1.4-3.9,1.9-5.4h5.2c-0.3,1-0.7,2.2-1.2,3.6s-1.1,2.9-1.7,4.5
			c-0.6,1.6-1.3,3.3-2,5s-1.4,3.4-2,4.9c-0.7,1.6-1.3,3-1.9,4.4c-0.6,1.3-1.1,2.4-1.6,3.3L442.8,156.7L442.8,156.7z"/>
	</g>
	<path class="st0" d="M109.2,138.8c0.1-10.4,2.1-20.4,5.9-29.5c1.3-3.1,4.2-5.1,7.6-5.1h21.5c4.5,0,8.2-3.7,8.2-8.2V74.6
		c0-3.3,2-6.3,5.1-7.6c9.1-3.8,17.7-5.5,29.5-5.9h0.4c43.1,0,78,34.9,78,78s-34.9,78-78,78s-78-34.9-78-78L109.2,138.8z"/>
	<g>
		<path class="st1" d="M184.6,121.6H179c-0.9,0-1.6,0.7-1.6,1.6v3.8c0,0.9-0.7,1.6-1.6,1.6h-3.8c-0.9,0-1.6,0.7-1.6,1.6v24.7
			c0,0.9,0.7,1.6,1.6,1.6h12.5c12.4,0,18.2-7.4,18.2-17.4C202.8,129,196.9,121.6,184.6,121.6z M183.5,150.7h-1.6
			c-0.9,0-1.6-0.7-1.6-1.6v-19.7c0-0.9,0.7-1.6,1.6-1.6h1.6c6.1,0,9.6,4.4,9.6,11.4C193.1,146.4,189.5,150.7,183.5,150.7z"/>
		<path class="st1" d="M166,121.6h-25c-0.9,0-1.6,0.7-1.6,1.6v2.7c0,0.9,0.7,1.6,1.6,1.6h5.8c0.9,0,1.6,0.7,1.6,1.6v25.8
			c0,0.9,0.7,1.6,1.6,1.6h7.1c0.9,0,1.6-0.7,1.6-1.6v-25.8c0-0.9,0.7-1.6,1.6-1.6h5.8c0.9,0,1.6-0.7,1.6-1.6v-2.7
			C167.6,122.3,166.9,121.6,166,121.6z"/>
		<path class="st1" d="M233.2,150.1l-1.1,0.1c-0.9,0.1-2.3,0.2-3.5,0.2c-6,0-10.4-4-10.4-11.2c0-8.5,5.8-11.8,12.1-11.3
			c0,0,0.6,0.1,0.8,0.1c0.9,0.1,1.7-0.5,1.8-1.4c0-0.4,0.1-0.8,0.1-1.1v-1.1c0-0.8-0.1-1.4-0.6-1.9c-0.4-0.4-0.9-0.6-1.7-0.8
			c-0.9-0.1-2.2-0.2-4.5-0.2c-12.3,0-18.2,8.4-18.2,17.8c0,9.4,5.9,17.8,18.2,17.8c2.4,0,4-0.1,5.4-0.3c0.8-0.1,1.5-0.3,2-0.8
			s0.7-0.9,0.9-1.6l0,0l0.3-1.7l0.1-0.5C235.1,150.9,234.2,150,233.2,150.1z"/>
	</g>
</g>
<g id="Layer_2_00000050644588109772471300000009168399062590714799_" class="st2">
	<g class="st3">
		<path class="st4" d="M-678.1,76.1h-24.4c-3.9,0-7.1,3.2-7.1,7.1v16.6c0,3.9-3.2,7.1-7.1,7.1h-16.6c-3.9,0-7.1,3.2-7.1,7.1v109.2
			c0,3.9,3.2,7.1,7.1,7.1h55.2c54.6,0,80.5-32.7,80.5-77.1C-597.7,108.8-623.5,76.1-678.1,76.1z M-682.9,204.6h-7.1
			c-3.9,0-7.1-3.2-7.1-7.1v-86.8c0-3.9,3.2-7.1,7.1-7.1h7.1c26.7,0,42.4,19.3,42.4,50.5C-640.5,185.3-656.2,204.6-682.9,204.6z"/>
	</g>
</g>
<g>
	<path class="st0" d="M287.4,183.8c0.6,0.5,1.3,0.9,2.2,1.2c0.9,0.3,1.8,0.4,2.8,0.4c1.4,0,2.5-0.3,3.2-1c0.7-0.7,1.1-1.6,1.1-2.7
		c0-0.7-0.2-1.3-0.6-1.9c-0.4-0.5-1.1-1-2.1-1.3l-1.8-0.6c-1.3-0.4-2.2-1.1-2.7-1.8c-0.6-0.8-0.8-1.6-0.8-2.6c0-0.5,0.1-1,0.3-1.6
		s0.5-1.2,1-1.7c0.5-0.5,1.1-1,1.9-1.3c0.8-0.4,1.9-0.5,3.2-0.5c0.9,0,1.8,0.1,2.7,0.4c0.9,0.3,1.7,0.7,2.3,1.3l-1,1.2
		c-0.6-0.5-1.2-0.9-1.9-1.1c-0.7-0.2-1.5-0.3-2.3-0.3c-0.8,0-1.4,0.1-2,0.3s-1,0.4-1.4,0.8s-0.6,0.7-0.8,1.1
		c-0.2,0.4-0.3,0.9-0.3,1.3c0,0.3,0,0.6,0.1,0.8c0.1,0.3,0.2,0.5,0.4,0.8c0.2,0.3,0.5,0.5,0.8,0.7c0.3,0.2,0.8,0.4,1.3,0.6l1.9,0.7
		c0.7,0.3,1.3,0.6,1.8,0.9s0.8,0.7,1.1,1.1c0.3,0.4,0.5,0.8,0.6,1.3c0.1,0.4,0.2,0.9,0.2,1.3c0,0.8-0.1,1.5-0.4,2.1
		c-0.3,0.7-0.6,1.2-1.2,1.7c-0.5,0.5-1.2,0.8-1.9,1.1c-0.8,0.3-1.6,0.4-2.6,0.4c-1.1,0-2.2-0.2-3.3-0.5c-1.1-0.3-2-0.8-2.7-1.4
		L287.4,183.8z"/>
	<path class="st0" d="M312.3,176.6c0,0.7-0.2,1.4-0.5,1.9c-0.3,0.5-0.8,1-1.6,1.4c-0.7,0.4-1.7,0.7-2.9,0.9s-2.7,0.4-4.5,0.5
		c0,0.6,0.1,1.1,0.3,1.6s0.4,0.9,0.7,1.3c0.3,0.4,0.7,0.7,1.1,0.9c0.4,0.2,0.9,0.3,1.5,0.3c0.7,0,1.3-0.1,1.9-0.2
		c0.5-0.2,1-0.4,1.5-0.7l0.7,1.3c-0.6,0.4-1.3,0.7-2,0.9c-0.7,0.2-1.4,0.2-2.2,0.2c-0.8,0-1.6-0.1-2.2-0.4s-1.2-0.7-1.7-1.2
		c-0.5-0.5-0.8-1.1-1-1.7s-0.3-1.4-0.3-2.1c0-1.2,0.2-2.2,0.6-3.2c0.4-1,1-1.8,1.7-2.5c0.7-0.7,1.5-1.3,2.3-1.7s1.8-0.6,2.7-0.6
		c1.3,0,2.2,0.3,2.8,1S312.3,175.7,312.3,176.6z M308.4,174.8c-0.6,0-1.2,0.1-1.8,0.4s-1.1,0.6-1.6,1c-0.5,0.4-0.9,1-1.3,1.6
		c-0.4,0.6-0.6,1.4-0.7,2.2c1.5-0.1,2.7-0.2,3.7-0.4c1-0.2,1.8-0.4,2.3-0.7s1-0.6,1.2-1c0.2-0.4,0.4-0.8,0.4-1.3
		c0-0.6-0.2-1.1-0.5-1.4S309.2,174.8,308.4,174.8z"/>
	<path class="st0" d="M321.9,175.1h-2.1l0.3-1.4h2.1l0.3-1.7c0.3-1.6,0.8-2.8,1.7-3.5s1.8-1.1,3.1-1.1c0.6,0,1.1,0.1,1.6,0.2
		c0.5,0.2,1,0.5,1.5,0.9l-0.9,1c-0.3-0.3-0.6-0.5-1-0.7s-0.7-0.2-1.2-0.2c-0.6,0-1,0.1-1.4,0.3s-0.7,0.4-0.9,0.7s-0.4,0.7-0.5,1.1
		c-0.1,0.4-0.2,0.9-0.3,1.4l-0.3,1.3h3.8l-0.3,1.4h-3.8l-2.1,11.3c-0.2,1-0.4,1.9-0.6,2.7c-0.2,0.8-0.6,1.6-1.1,2.4l-1.5-0.3
		c0.4-0.8,0.7-1.6,0.9-2.3c0.2-0.8,0.4-1.6,0.6-2.4L321.9,175.1z"/>
	<path class="st0" d="M329.7,174.7c0.5-0.4,1.1-0.7,1.9-1c0.7-0.3,1.6-0.4,2.4-0.4c0.6,0,1.2,0.1,1.7,0.2c0.5,0.1,1,0.3,1.3,0.5
		l-0.7,1.3c-0.4-0.2-0.7-0.4-1.2-0.5c-0.4-0.1-0.8-0.1-1.3-0.1c-0.6,0-1.1,0.1-1.5,0.2c-0.4,0.2-0.8,0.3-1.1,0.5l-2.1,10.9h-1.6
		L329.7,174.7z"/>
	<path class="st0" d="M348,176.6c0,0.7-0.2,1.4-0.5,1.9c-0.3,0.5-0.8,1-1.6,1.4c-0.7,0.4-1.7,0.7-2.9,0.9s-2.7,0.4-4.5,0.5
		c0,0.6,0.1,1.1,0.3,1.6s0.4,0.9,0.7,1.3c0.3,0.4,0.7,0.7,1.1,0.9c0.4,0.2,0.9,0.3,1.5,0.3c0.7,0,1.3-0.1,1.9-0.2
		c0.5-0.2,1-0.4,1.5-0.7l0.7,1.3c-0.6,0.4-1.3,0.7-2,0.9c-0.7,0.2-1.4,0.2-2.2,0.2c-0.8,0-1.6-0.1-2.2-0.4s-1.2-0.7-1.7-1.2
		c-0.5-0.5-0.8-1.1-1-1.7s-0.3-1.4-0.3-2.1c0-1.2,0.2-2.2,0.6-3.2c0.4-1,1-1.8,1.7-2.5c0.7-0.7,1.5-1.3,2.3-1.7s1.8-0.6,2.7-0.6
		c1.3,0,2.2,0.3,2.8,1S348,175.7,348,176.6z M344.2,174.8c-0.6,0-1.2,0.1-1.8,0.4s-1.1,0.6-1.6,1c-0.5,0.4-0.9,1-1.3,1.6
		c-0.4,0.6-0.6,1.4-0.7,2.2c1.5-0.1,2.7-0.2,3.7-0.4c1-0.2,1.8-0.4,2.3-0.7s1-0.6,1.2-1c0.2-0.4,0.4-0.8,0.4-1.3
		c0-0.6-0.2-1.1-0.5-1.4S344.9,174.8,344.2,174.8z"/>
	<path class="st0" d="M351.7,174.2c0.2-0.1,0.5-0.2,0.8-0.3s0.7-0.2,1.1-0.3c0.4-0.1,0.8-0.2,1.2-0.2c0.4-0.1,0.8-0.1,1.1-0.1
		c1,0,1.9,0.2,2.6,0.7c0.7,0.5,1.2,1.2,1.5,2.1c0.6-1,1.3-1.8,2.2-2.2s1.7-0.6,2.5-0.6c1.4,0,2.4,0.4,3.1,1.3
		c0.7,0.9,0.9,2.2,0.5,3.9l-1.5,7.8h-1.6l1.4-7.4c0.3-1.6,0.3-2.7-0.1-3.3c-0.4-0.6-1.1-1-2.1-1c-0.4,0-0.9,0.1-1.3,0.2
		c-0.4,0.2-0.8,0.4-1.2,0.8s-0.7,0.8-1,1.4c-0.3,0.6-0.5,1.3-0.7,2.1l-1.4,7.2h-1.6l1.4-7.2c0.2-0.8,0.2-1.5,0.1-2
		c-0.1-0.6-0.3-1-0.5-1.4c-0.3-0.4-0.6-0.6-1-0.8c-0.4-0.2-0.9-0.2-1.4-0.2c-0.5,0-0.9,0-1.4,0.1c-0.4,0.1-0.9,0.2-1.3,0.4
		l-2.2,11.2h-1.6L351.7,174.2z"/>
	<path class="st0" d="M382.9,174.3l-1.7,8.8c0,0.2-0.1,0.4-0.1,0.6c0,0.2,0,0.4,0,0.6c0,0.3,0,0.7,0.1,1c0,0.3,0.1,0.7,0.2,1
		l-1.6,0.2c-0.2-0.6-0.3-1.2-0.3-1.9v-0.3c-0.2,0.2-0.4,0.5-0.6,0.8c-0.3,0.3-0.6,0.6-0.9,0.8c-0.4,0.2-0.8,0.5-1.2,0.6
		c-0.5,0.2-1,0.3-1.6,0.3c-0.7,0-1.2-0.1-1.8-0.4c-0.5-0.2-1-0.6-1.3-1c-0.4-0.4-0.6-1-0.8-1.5s-0.3-1.2-0.3-1.9
		c0-1.1,0.2-2.1,0.5-3.2c0.4-1,0.9-1.9,1.5-2.7c0.7-0.8,1.5-1.4,2.5-1.9c1-0.5,2-0.7,3.2-0.7c0.4,0,0.9,0,1.3,0.1
		c0.4,0.1,0.8,0.2,1.2,0.2s0.7,0.2,1,0.3C382.5,174.1,382.8,174.2,382.9,174.3z M381.1,175.2c-0.1-0.1-0.4-0.1-0.8-0.3
		c-0.4-0.1-1-0.2-1.7-0.2c-0.9,0-1.7,0.2-2.4,0.6c-0.7,0.4-1.3,0.9-1.9,1.6c-0.5,0.7-0.9,1.4-1.2,2.3s-0.4,1.7-0.4,2.6
		c0,1,0.2,1.9,0.7,2.5c0.5,0.6,1.2,0.9,2.1,0.9c0.6,0,1.2-0.1,1.7-0.4c0.5-0.3,1-0.6,1.3-1.1c0.4-0.4,0.7-1,1-1.5
		c0.3-0.6,0.4-1.2,0.6-1.8L381.1,175.2z"/>
	<path class="st0" d="M396.8,167.7h1.6l-3.7,18.6c-0.2,0.1-0.5,0.1-0.8,0.2c-0.3,0.1-0.6,0.1-1,0.1c-0.3,0-0.7,0.1-1,0.1
		c-0.3,0-0.6,0-0.9,0c-0.9,0-1.7-0.1-2.4-0.4c-0.7-0.3-1.4-0.6-1.9-1.1c-0.6-0.5-1-1.1-1.3-1.8c-0.3-0.7-0.5-1.5-0.5-2.4
		c0-1.3,0.2-2.4,0.6-3.3c0.4-1,0.9-1.8,1.5-2.4c0.6-0.7,1.3-1.2,2.1-1.5c0.8-0.3,1.5-0.5,2.3-0.5c0.6,0,1.2,0.1,1.6,0.3
		c0.4,0.2,0.8,0.4,1.1,0.6c0.3,0.2,0.5,0.5,0.7,0.7c0.2,0.3,0.3,0.5,0.4,0.6L396.8,167.7z M394.4,179.7c0.1-0.2,0.1-0.5,0.1-0.7
		c0-0.2,0.1-0.5,0.1-0.7c0-0.5-0.1-0.9-0.2-1.4s-0.3-0.8-0.6-1.1c-0.3-0.3-0.6-0.6-1-0.7c-0.4-0.2-0.8-0.3-1.3-0.3
		c-0.6,0-1.2,0.1-1.8,0.4c-0.6,0.2-1.1,0.6-1.5,1.1c-0.4,0.5-0.8,1.2-1.1,1.9c-0.3,0.8-0.4,1.7-0.4,2.7c0,1.3,0.4,2.4,1.2,3.2
		s2,1.2,3.4,1.2c0.8,0,1.4-0.1,2-0.2L394.4,179.7z"/>
</g>
</svg>
